<?xml version="1.0" encoding="UTF-8"?>
<svg width="2448px" height="2448px" viewBox="0 0 2448 2448" version="1.1" xmlns="http://www.w3.org/2000/svg" xmlns:xlink="http://www.w3.org/1999/xlink">
    <title>Group 4</title>
    <g id="Symbols" stroke="none" stroke-width="1" fill="none" fill-rule="evenodd">
        <g id="blueprint_grid" transform="translate(-75.000000, -77.000000)" stroke="#395160" stroke-width="4">
            <g id="Group-4" transform="translate(77.000000, 77.000000)">
                <line x1="0.299788136" y1="0" x2="0.299788136" y2="2446" id="Path-7"></line>
                <line x1="271.700212" y1="0" x2="271.700212" y2="2446" id="Path-7"></line>
                <line x1="543.700212" y1="0" x2="543.700212" y2="2446" id="Path-7"></line>
                <line x1="815.700212" y1="0" x2="815.700212" y2="2446" id="Path-7"></line>
                <line x1="951.700212" y1="0" x2="951.700212" y2="2446" id="Path-7"></line>
                <line x1="1086.70021" y1="0" x2="1086.70021" y2="2446" id="Path-7"></line>
                <line x1="1222.70021" y1="0" x2="1222.70021" y2="2446" id="Path-7"></line>
                <line x1="1630.70021" y1="0" x2="1630.70021" y2="2446" id="Path-7"></line>
                <line x1="1766.70021" y1="0" x2="1766.70021" y2="2446" id="Path-7"></line>
                <line x1="1902.70021" y1="0" x2="1902.70021" y2="2446" id="Path-7"></line>
                <line x1="2037.70021" y1="0" x2="2037.70021" y2="2446" id="Path-7"></line>
                <line x1="2173.70021" y1="0" x2="2173.70021" y2="2446" id="Path-7"></line>
                <line x1="2309.70021" y1="0" x2="2309.70021" y2="2446" id="Path-7"></line>
                <line x1="1358.70021" y1="0" x2="1358.70021" y2="2446" id="Path-7"></line>
                <line x1="1494.70021" y1="0" x2="1494.70021" y2="2446" id="Path-7"></line>
                <line x1="135.700212" y1="0" x2="135.700212" y2="2446" id="Path-7"></line>
                <line x1="407.700212" y1="0" x2="407.700212" y2="2446" id="Path-7"></line>
                <line x1="679.700212" y1="0" x2="679.700212" y2="2446" id="Path-7"></line>
                <line x1="1223" y1="-951.299788" x2="1223" y2="1494.70021" id="Path-7" transform="translate(1223.000000, 271.700212) rotate(-270.000000) translate(-1223.000000, -271.700212) "></line>
                <line x1="1223" y1="-679.299788" x2="1223" y2="1766.70021" id="Path-7" transform="translate(1223.000000, 543.700212) rotate(-270.000000) translate(-1223.000000, -543.700212) "></line>
                <line x1="1223" y1="-407.299788" x2="1223" y2="2038.70021" id="Path-7" transform="translate(1223.000000, 815.700212) rotate(-270.000000) translate(-1223.000000, -815.700212) "></line>
                <line x1="1223" y1="-271.299788" x2="1223" y2="2174.70021" id="Path-7" transform="translate(1223.000000, 951.700212) rotate(-270.000000) translate(-1223.000000, -951.700212) "></line>
                <line x1="1223" y1="-136.299788" x2="1223" y2="2309.70021" id="Path-7" transform="translate(1223.000000, 1086.700212) rotate(-270.000000) translate(-1223.000000, -1086.700212) "></line>
                <line x1="1223" y1="-0.299788136" x2="1223" y2="2445.70021" id="Path-7" transform="translate(1223.000000, 1222.700212) rotate(-270.000000) translate(-1223.000000, -1222.700212) "></line>
                <line x1="1223" y1="407.700212" x2="1223" y2="2853.70021" id="Path-7" transform="translate(1223.000000, 1630.700212) rotate(-270.000000) translate(-1223.000000, -1630.700212) "></line>
                <line x1="1223" y1="543.700212" x2="1223" y2="2989.70021" id="Path-7" transform="translate(1223.000000, 1766.700212) rotate(-270.000000) translate(-1223.000000, -1766.700212) "></line>
                <line x1="1223" y1="679.700212" x2="1223" y2="3125.70021" id="Path-7" transform="translate(1223.000000, 1902.700212) rotate(-270.000000) translate(-1223.000000, -1902.700212) "></line>
                <line x1="1223" y1="814.700212" x2="1223" y2="3260.70021" id="Path-7" transform="translate(1223.000000, 2037.700212) rotate(-270.000000) translate(-1223.000000, -2037.700212) "></line>
                <line x1="1223" y1="950.700212" x2="1223" y2="3396.70021" id="Path-7" transform="translate(1223.000000, 2173.700212) rotate(-270.000000) translate(-1223.000000, -2173.700212) "></line>
                <line x1="1223" y1="1086.70021" x2="1223" y2="3532.70021" id="Path-7" transform="translate(1223.000000, 2309.700212) rotate(-270.000000) translate(-1223.000000, -2309.700212) "></line>
                <line x1="1223" y1="1222.70021" x2="1223" y2="3668.70021" id="Path-7" transform="translate(1223.000000, 2445.700212) rotate(-270.000000) translate(-1223.000000, -2445.700212) "></line>
                <line x1="1223" y1="135.700212" x2="1223" y2="2581.70021" id="Path-7" transform="translate(1223.000000, 1358.700212) rotate(-270.000000) translate(-1223.000000, -1358.700212) "></line>
                <line x1="1223" y1="271.700212" x2="1223" y2="2717.70021" id="Path-7" transform="translate(1223.000000, 1494.700212) rotate(-270.000000) translate(-1223.000000, -1494.700212) "></line>
                <line x1="1223" y1="-1087.29979" x2="1223" y2="1358.70021" id="Path-7" transform="translate(1223.000000, 135.700212) rotate(-270.000000) translate(-1223.000000, -135.700212) "></line>
                <line x1="1223" y1="-815.299788" x2="1223" y2="1630.70021" id="Path-7" transform="translate(1223.000000, 407.700212) rotate(-270.000000) translate(-1223.000000, -407.700212) "></line>
                <line x1="1223" y1="-543.299788" x2="1223" y2="1902.70021" id="Path-7" transform="translate(1223.000000, 679.700212) rotate(-270.000000) translate(-1223.000000, -679.700212) "></line>
            </g>
        </g>
    </g>
</svg>