<svg width="2988" height="415" viewBox="0 0 2988 415" xmlns="http://www.w3.org/2000/svg">
    <g fill="none" fill-rule="evenodd" opacity=".403">
        <path d="m141.957 230.653 46.39 46.39c3.783 3.782 4.76 5.547 5.404 7.67a10.904 10.904 0 0 1 0 6.415c-.644 2.122-1.621 3.888-5.404 7.67l-46.39 46.39c-3.782 3.782-5.547 4.76-7.67 5.403a10.904 10.904 0 0 1-6.415 0c-2.122-.643-3.888-1.62-7.67-5.403l-46.39-46.39c-3.782-3.782-4.76-5.548-5.403-7.67a10.904 10.904 0 0 1 0-6.415c.643-2.123 1.62-3.888 5.403-7.67l46.39-46.39c3.782-3.783 5.548-4.76 7.67-5.404a10.904 10.904 0 0 1 6.415 0c2.123.644 3.888 1.621 7.67 5.404zM462.798 70.232l46.39 46.39c3.782 3.783 4.76 5.548 5.403 7.67a10.904 10.904 0 0 1 0 6.416c-.643 2.122-1.62 3.887-5.403 7.67l-46.39 46.39c-3.782 3.782-5.548 4.76-7.67 5.403a10.904 10.904 0 0 1-6.415 0c-2.123-.643-3.888-1.621-7.67-5.403l-46.39-46.39c-3.783-3.783-4.76-5.548-5.404-7.67a10.904 10.904 0 0 1 0-6.416c.644-2.122 1.621-3.887 5.404-7.67l46.39-46.39c3.782-3.782 5.547-4.76 7.67-5.403a10.904 10.904 0 0 1 6.415 0c2.122.643 3.888 1.621 7.67 5.403z" fill="#E5E5EA"/>
        <circle fill="#E5E5EA" cx="451.92" cy="287.92" r="59.858"/>
        <circle fill="#E5E5EA" cx="291.5" cy="127.5" r="59.858"/>
        <path d="M262.024 228.062h58.952c10.565 0 14.396 1.1 18.258 3.166 3.862 2.065 6.893 5.096 8.959 8.958 2.065 3.863 3.165 7.694 3.165 18.258v58.953c0 10.564-1.1 14.395-3.165 18.257-2.066 3.862-5.097 6.894-8.96 8.96-3.861 2.065-7.692 3.165-18.257 3.165h-58.952c-10.565 0-14.396-1.1-18.258-3.166-3.862-2.065-6.893-5.097-8.959-8.959-2.065-3.862-3.165-7.693-3.165-18.257v-58.953c0-10.564 1.1-14.395 3.165-18.258 2.066-3.862 5.097-6.893 8.96-8.958 3.861-2.066 7.692-3.166 18.257-3.166zM101.603 67.642h58.953c10.564 0 14.395 1.1 18.258 3.165 3.862 2.066 6.893 5.097 8.958 8.96 2.066 3.861 3.166 7.692 3.166 18.257v58.952c0 10.565-1.1 14.396-3.166 18.258-2.065 3.862-5.096 6.893-8.958 8.959-3.863 2.065-7.694 3.165-18.258 3.165h-58.953c-10.564 0-14.395-1.1-18.257-3.165-3.862-2.066-6.894-5.097-8.96-8.96-2.065-3.861-3.165-7.692-3.165-18.257V98.024c0-10.565 1.1-14.396 3.166-18.258 2.065-3.862 5.097-6.893 8.959-8.959 3.862-2.065 7.693-3.165 18.257-3.165zM622.957 230.653l46.39 46.39c3.783 3.782 4.76 5.547 5.404 7.67a10.904 10.904 0 0 1 0 6.415c-.644 2.122-1.621 3.888-5.404 7.67l-46.39 46.39c-3.782 3.782-5.547 4.76-7.67 5.403a10.904 10.904 0 0 1-6.415 0c-2.122-.643-3.888-1.62-7.67-5.403l-46.39-46.39c-3.782-3.782-4.76-5.548-5.403-7.67a10.904 10.904 0 0 1 0-6.415c.643-2.123 1.62-3.888 5.403-7.67l46.39-46.39c3.782-3.783 5.548-4.76 7.67-5.404a10.904 10.904 0 0 1 6.415 0c2.123.644 3.888 1.621 7.67 5.404zM943.798 70.232l46.39 46.39c3.782 3.783 4.76 5.548 5.403 7.67a10.904 10.904 0 0 1 0 6.416c-.643 2.122-1.62 3.887-5.403 7.67l-46.39 46.39c-3.782 3.782-5.548 4.76-7.67 5.403a10.904 10.904 0 0 1-6.415 0c-2.123-.643-3.888-1.621-7.67-5.403l-46.39-46.39c-3.783-3.783-4.76-5.548-5.404-7.67a10.904 10.904 0 0 1 0-6.416c.644-2.122 1.621-3.887 5.404-7.67l46.39-46.39c3.782-3.782 5.547-4.76 7.67-5.403a10.904 10.904 0 0 1 6.415 0c2.122.643 3.888 1.621 7.67 5.403z" fill="#E5E5EA"/>
        <circle fill="#E5E5EA" cx="932.92" cy="287.92" r="59.858"/>
        <circle fill="#E5E5EA" cx="772.5" cy="127.5" r="59.858"/>
        <path d="M743.024 228.062h58.952c10.565 0 14.396 1.1 18.258 3.166 3.862 2.065 6.893 5.096 8.959 8.958 2.065 3.863 3.165 7.694 3.165 18.258v58.953c0 10.564-1.1 14.395-3.165 18.257-2.066 3.862-5.097 6.894-8.96 8.96-3.861 2.065-7.692 3.165-18.257 3.165h-58.952c-10.565 0-14.396-1.1-18.258-3.166-3.862-2.065-6.893-5.097-8.959-8.959-2.065-3.862-3.165-7.693-3.165-18.257v-58.953c0-10.564 1.1-14.395 3.165-18.258 2.066-3.862 5.097-6.893 8.96-8.958 3.861-2.066 7.692-3.166 18.257-3.166zM582.603 67.642h58.953c10.564 0 14.395 1.1 18.258 3.165 3.862 2.066 6.893 5.097 8.958 8.96 2.066 3.861 3.166 7.692 3.166 18.257v58.952c0 10.565-1.1 14.396-3.166 18.258-2.065 3.862-5.096 6.893-8.958 8.959-3.863 2.065-7.694 3.165-18.258 3.165h-58.953c-10.564 0-14.395-1.1-18.257-3.165-3.862-2.066-6.894-5.097-8.96-8.96-2.065-3.861-3.165-7.692-3.165-18.257V98.024c0-10.565 1.1-14.396 3.166-18.258 2.065-3.862 5.097-6.893 8.959-8.959 3.862-2.065 7.693-3.165 18.257-3.165zM1103.957 230.653l46.39 46.39c3.783 3.782 4.76 5.547 5.404 7.67a10.904 10.904 0 0 1 0 6.415c-.644 2.122-1.621 3.888-5.404 7.67l-46.39 46.39c-3.782 3.782-5.547 4.76-7.67 5.403a10.904 10.904 0 0 1-6.415 0c-2.122-.643-3.888-1.62-7.67-5.403l-46.39-46.39c-3.782-3.782-4.76-5.548-5.403-7.67a10.904 10.904 0 0 1 0-6.415c.643-2.123 1.62-3.888 5.403-7.67l46.39-46.39c3.782-3.783 5.548-4.76 7.67-5.404a10.904 10.904 0 0 1 6.415 0c2.123.644 3.888 1.621 7.67 5.404zM1424.798 70.232l46.39 46.39c3.782 3.783 4.76 5.548 5.403 7.67a10.904 10.904 0 0 1 0 6.416c-.643 2.122-1.62 3.887-5.403 7.67l-46.39 46.39c-3.782 3.782-5.548 4.76-7.67 5.403a10.904 10.904 0 0 1-6.415 0c-2.123-.643-3.888-1.621-7.67-5.403l-46.39-46.39c-3.783-3.783-4.76-5.548-5.404-7.67a10.904 10.904 0 0 1 0-6.416c.644-2.122 1.621-3.887 5.404-7.67l46.39-46.39c3.782-3.782 5.547-4.76 7.67-5.403a10.904 10.904 0 0 1 6.415 0c2.122.643 3.888 1.621 7.67 5.403z" fill="#E5E5EA"/>
        <circle fill="#E5E5EA" cx="1413.92" cy="287.92" r="59.858"/>
        <circle fill="#E5E5EA" cx="1253.5" cy="127.5" r="59.858"/>
        <path d="M1224.024 228.062h58.952c10.565 0 14.396 1.1 18.258 3.166 3.862 2.065 6.893 5.096 8.959 8.958 2.065 3.863 3.165 7.694 3.165 18.258v58.953c0 10.564-1.1 14.395-3.165 18.257-2.066 3.862-5.097 6.894-8.959 8.96-3.862 2.065-7.693 3.165-18.258 3.165h-58.952c-10.565 0-14.396-1.1-18.258-3.166-3.862-2.065-6.893-5.097-8.959-8.959-2.065-3.862-3.165-7.693-3.165-18.257v-58.953c0-10.564 1.1-14.395 3.165-18.258 2.066-3.862 5.097-6.893 8.959-8.958 3.862-2.066 7.693-3.166 18.258-3.166zM1063.603 67.642h58.953c10.564 0 14.395 1.1 18.258 3.165 3.862 2.066 6.893 5.097 8.958 8.96 2.066 3.861 3.166 7.692 3.166 18.257v58.952c0 10.565-1.1 14.396-3.166 18.258-2.065 3.862-5.096 6.893-8.958 8.959-3.863 2.065-7.694 3.165-18.258 3.165h-58.953c-10.564 0-14.395-1.1-18.257-3.165-3.862-2.066-6.894-5.097-8.96-8.96-2.065-3.861-3.165-7.692-3.165-18.257V98.024c0-10.565 1.1-14.396 3.166-18.258 2.065-3.862 5.097-6.893 8.959-8.959 3.862-2.065 7.693-3.165 18.257-3.165zM1584.957 230.653l46.39 46.39c3.783 3.782 4.76 5.547 5.404 7.67a10.904 10.904 0 0 1 0 6.415c-.644 2.122-1.621 3.888-5.404 7.67l-46.39 46.39c-3.782 3.782-5.547 4.76-7.67 5.403a10.904 10.904 0 0 1-6.415 0c-2.122-.643-3.888-1.62-7.67-5.403l-46.39-46.39c-3.782-3.782-4.76-5.548-5.403-7.67a10.904 10.904 0 0 1 0-6.415c.643-2.123 1.62-3.888 5.403-7.67l46.39-46.39c3.782-3.783 5.548-4.76 7.67-5.404a10.904 10.904 0 0 1 6.415 0c2.123.644 3.888 1.621 7.67 5.404zM1905.798 70.232l46.39 46.39c3.782 3.783 4.76 5.548 5.403 7.67a10.904 10.904 0 0 1 0 6.416c-.643 2.122-1.62 3.887-5.403 7.67l-46.39 46.39c-3.782 3.782-5.548 4.76-7.67 5.403a10.904 10.904 0 0 1-6.415 0c-2.123-.643-3.888-1.621-7.67-5.403l-46.39-46.39c-3.783-3.783-4.76-5.548-5.404-7.67a10.904 10.904 0 0 1 0-6.416c.644-2.122 1.621-3.887 5.404-7.67l46.39-46.39c3.782-3.782 5.547-4.76 7.67-5.403a10.904 10.904 0 0 1 6.415 0c2.122.643 3.888 1.621 7.67 5.403z" fill="#E5E5EA"/>
        <circle fill="#E5E5EA" cx="1894.92" cy="287.92" r="59.858"/>
        <circle fill="#E5E5EA" cx="1734.5" cy="127.5" r="59.858"/>
        <path d="M1705.024 228.062h58.952c10.565 0 14.396 1.1 18.258 3.166 3.862 2.065 6.893 5.096 8.959 8.958 2.065 3.863 3.165 7.694 3.165 18.258v58.953c0 10.564-1.1 14.395-3.165 18.257-2.066 3.862-5.097 6.894-8.959 8.96-3.862 2.065-7.693 3.165-18.258 3.165h-58.952c-10.565 0-14.396-1.1-18.258-3.166-3.862-2.065-6.893-5.097-8.959-8.959-2.065-3.862-3.165-7.693-3.165-18.257v-58.953c0-10.564 1.1-14.395 3.165-18.258 2.066-3.862 5.097-6.893 8.959-8.958 3.862-2.066 7.693-3.166 18.258-3.166zM1544.603 67.642h58.953c10.564 0 14.395 1.1 18.258 3.165 3.862 2.066 6.893 5.097 8.958 8.96 2.066 3.861 3.166 7.692 3.166 18.257v58.952c0 10.565-1.1 14.396-3.166 18.258-2.065 3.862-5.096 6.893-8.958 8.959-3.863 2.065-7.694 3.165-18.258 3.165h-58.953c-10.564 0-14.395-1.1-18.257-3.165-3.862-2.066-6.894-5.097-8.96-8.96-2.065-3.861-3.165-7.692-3.165-18.257V98.024c0-10.565 1.1-14.396 3.166-18.258 2.065-3.862 5.097-6.893 8.959-8.959 3.862-2.065 7.693-3.165 18.257-3.165zM2065.957 230.653l46.39 46.39c3.783 3.782 4.76 5.547 5.404 7.67a10.904 10.904 0 0 1 0 6.415c-.644 2.122-1.621 3.888-5.404 7.67l-46.39 46.39c-3.782 3.782-5.547 4.76-7.67 5.403a10.904 10.904 0 0 1-6.415 0c-2.122-.643-3.888-1.62-7.67-5.403l-46.39-46.39c-3.782-3.782-4.76-5.548-5.403-7.67a10.904 10.904 0 0 1 0-6.415c.643-2.123 1.62-3.888 5.403-7.67l46.39-46.39c3.782-3.783 5.548-4.76 7.67-5.404a10.904 10.904 0 0 1 6.415 0c2.123.644 3.888 1.621 7.67 5.404zM2386.798 70.232l46.39 46.39c3.782 3.783 4.76 5.548 5.403 7.67a10.904 10.904 0 0 1 0 6.416c-.643 2.122-1.62 3.887-5.403 7.67l-46.39 46.39c-3.782 3.782-5.548 4.76-7.67 5.403a10.904 10.904 0 0 1-6.415 0c-2.123-.643-3.888-1.621-7.67-5.403l-46.39-46.39c-3.783-3.783-4.76-5.548-5.404-7.67a10.904 10.904 0 0 1 0-6.416c.644-2.122 1.621-3.887 5.404-7.67l46.39-46.39c3.782-3.782 5.547-4.76 7.67-5.403a10.904 10.904 0 0 1 6.415 0c2.122.643 3.888 1.621 7.67 5.403z" fill="#E5E5EA"/>
        <circle fill="#E5E5EA" cx="2375.92" cy="287.92" r="59.858"/>
        <circle fill="#E5E5EA" cx="2215.5" cy="127.5" r="59.858"/>
        <path d="M2186.024 228.062h58.952c10.565 0 14.396 1.1 18.258 3.166 3.862 2.065 6.893 5.096 8.959 8.958 2.065 3.863 3.165 7.694 3.165 18.258v58.953c0 10.564-1.1 14.395-3.165 18.257-2.066 3.862-5.097 6.894-8.96 8.96-3.861 2.065-7.692 3.165-18.257 3.165h-58.952c-10.565 0-14.396-1.1-18.258-3.166-3.862-2.065-6.893-5.097-8.959-8.959-2.065-3.862-3.165-7.693-3.165-18.257v-58.953c0-10.564 1.1-14.395 3.165-18.258 2.066-3.862 5.097-6.893 8.96-8.958 3.861-2.066 7.692-3.166 18.257-3.166zM2025.603 67.642h58.953c10.564 0 14.395 1.1 18.258 3.165 3.862 2.066 6.893 5.097 8.958 8.96 2.066 3.861 3.166 7.692 3.166 18.257v58.952c0 10.565-1.1 14.396-3.166 18.258-2.065 3.862-5.096 6.893-8.958 8.959-3.863 2.065-7.694 3.165-18.258 3.165h-58.953c-10.564 0-14.395-1.1-18.257-3.165-3.862-2.066-6.894-5.097-8.96-8.96-2.065-3.861-3.165-7.692-3.165-18.257V98.024c0-10.565 1.1-14.396 3.166-18.258 2.065-3.862 5.097-6.893 8.959-8.959 3.862-2.065 7.693-3.165 18.257-3.165zM2546.957 230.653l46.39 46.39c3.783 3.782 4.76 5.547 5.404 7.67a10.904 10.904 0 0 1 0 6.415c-.644 2.122-1.621 3.888-5.404 7.67l-46.39 46.39c-3.782 3.782-5.547 4.76-7.67 5.403a10.904 10.904 0 0 1-6.415 0c-2.122-.643-3.888-1.62-7.67-5.403l-46.39-46.39c-3.782-3.782-4.76-5.548-5.403-7.67a10.904 10.904 0 0 1 0-6.415c.643-2.123 1.62-3.888 5.403-7.67l46.39-46.39c3.782-3.783 5.548-4.76 7.67-5.404a10.904 10.904 0 0 1 6.415 0c2.123.644 3.888 1.621 7.67 5.404zM2867.798 70.232l46.39 46.39c3.782 3.783 4.76 5.548 5.403 7.67a10.904 10.904 0 0 1 0 6.416c-.643 2.122-1.62 3.887-5.403 7.67l-46.39 46.39c-3.782 3.782-5.548 4.76-7.67 5.403a10.904 10.904 0 0 1-6.415 0c-2.123-.643-3.888-1.621-7.67-5.403l-46.39-46.39c-3.783-3.783-4.76-5.548-5.404-7.67a10.904 10.904 0 0 1 0-6.416c.644-2.122 1.621-3.887 5.404-7.67l46.39-46.39c3.782-3.782 5.547-4.76 7.67-5.403a10.904 10.904 0 0 1 6.415 0c2.122.643 3.888 1.621 7.67 5.403z" fill="#E5E5EA"/>
        <circle fill="#E5E5EA" cx="2856.92" cy="287.92" r="59.858"/>
        <circle fill="#E5E5EA" cx="2696.5" cy="127.5" r="59.858"/>
        <path d="M2667.024 228.062h58.952c10.565 0 14.396 1.1 18.258 3.166 3.862 2.065 6.893 5.096 8.959 8.958 2.065 3.863 3.165 7.694 3.165 18.258v58.953c0 10.564-1.1 14.395-3.165 18.257-2.066 3.862-5.097 6.894-8.96 8.96-3.861 2.065-7.692 3.165-18.257 3.165h-58.952c-10.565 0-14.396-1.1-18.258-3.166-3.862-2.065-6.893-5.097-8.959-8.959-2.065-3.862-3.165-7.693-3.165-18.257v-58.953c0-10.564 1.1-14.395 3.165-18.258 2.066-3.862 5.097-6.893 8.96-8.958 3.861-2.066 7.692-3.166 18.257-3.166zM2506.603 67.642h58.953c10.564 0 14.395 1.1 18.258 3.165 3.862 2.066 6.893 5.097 8.958 8.96 2.066 3.861 3.166 7.692 3.166 18.257v58.952c0 10.565-1.1 14.396-3.166 18.258-2.065 3.862-5.096 6.893-8.958 8.959-3.863 2.065-7.694 3.165-18.258 3.165h-58.953c-10.564 0-14.395-1.1-18.257-3.165-3.862-2.066-6.894-5.097-8.96-8.96-2.065-3.861-3.165-7.692-3.165-18.257V98.024c0-10.565 1.1-14.396 3.166-18.258 2.065-3.862 5.097-6.893 8.959-8.959 3.862-2.065 7.693-3.165 18.257-3.165z" fill="#E5E5EA"/>
        <path stroke="#E5E5EA" stroke-width="3" stroke-linecap="round" stroke-linejoin="round" d="m63.739 207.668-25.739.15M50.977 220.58l-.15-25.739M63.739 368.088l-25.739.15M50.977 381l-.15-25.739M224.159 368.088l-25.739.15M211.397 381l-.15-25.739M384.58 368.088l-25.739.15M371.818 381l-.15-25.739M545 207.668l-25.739.15M532.238 220.58l-.15-25.739M545 368.088l-25.739.15M532.238 381l-.15-25.739M384.58 207.668l-25.739.15M371.818 220.58l-.15-25.739M63.739 47.247 38 47.397M50.977 60.159l-.15-25.739M224.159 47.247l-25.739.15M211.397 60.159l-.15-25.739M224.159 207.668l-25.739.15M211.397 220.58l-.15-25.739M384.58 47.247l-25.739.15M371.818 60.159l-.15-25.739M545 47.247l-25.739.15M532.238 60.159l-.15-25.739M224.159 207.668l-25.739.15M211.397 220.58l-.15-25.739M384.58 207.668l-25.739.15M371.818 220.58l-.15-25.739M384.58 207.668l-25.739.15M371.818 220.58l-.15-25.739M224.159 207.668l-25.739.15M211.397 220.58l-.15-25.739M544.739 207.668l-25.739.15M531.977 220.58l-.15-25.739M544.739 368.088l-25.739.15M531.977 381l-.15-25.739M705.159 368.088l-25.739.15M692.397 381l-.15-25.739M865.58 368.088l-25.739.15M852.818 381l-.15-25.739M1026 207.668l-25.739.15M1013.238 220.58l-.15-25.739M1026 368.088l-25.739.15M1013.238 381l-.15-25.739M865.58 207.668l-25.739.15M852.818 220.58l-.15-25.739M705.159 47.247l-25.739.15M692.397 60.159l-.15-25.739M705.159 207.668l-25.739.15M692.397 220.58l-.15-25.739M865.58 47.247l-25.739.15M852.818 60.159l-.15-25.739M1026 47.247l-25.739.15M1013.238 60.159l-.15-25.739M705.159 207.668l-25.739.15M692.397 220.58l-.15-25.739M865.58 207.668l-25.739.15M852.818 220.58l-.15-25.739M865.58 207.668l-25.739.15M852.818 220.58l-.15-25.739M705.159 207.668l-25.739.15M692.397 220.58l-.15-25.739M1025.739 207.668l-25.739.15M1012.977 220.58l-.15-25.739M1025.739 368.088l-25.739.15M1012.977 381l-.15-25.739M1186.159 368.088l-25.739.15M1173.397 381l-.15-25.739M1346.58 368.088l-25.739.15M1333.818 381l-.15-25.739M1507 207.668l-25.739.15M1494.238 220.58l-.15-25.739M1507 368.088l-25.739.15M1494.238 381l-.15-25.739M1346.58 207.668l-25.739.15M1333.818 220.58l-.15-25.739M1186.159 47.247l-25.739.15M1173.397 60.159l-.15-25.739M1186.159 207.668l-25.739.15M1173.397 220.58l-.15-25.739M1346.58 47.247l-25.739.15M1333.818 60.159l-.15-25.739M1507 47.247l-25.739.15M1494.238 60.159l-.15-25.739M1186.159 207.668l-25.739.15M1173.397 220.58l-.15-25.739M1346.58 207.668l-25.739.15M1333.818 220.58l-.15-25.739M1346.58 207.668l-25.739.15M1333.818 220.58l-.15-25.739M1186.159 207.668l-25.739.15M1173.397 220.58l-.15-25.739M1506.739 207.668l-25.739.15M1493.977 220.58l-.15-25.739M1506.739 368.088l-25.739.15M1493.977 381l-.15-25.739M1667.159 368.088l-25.739.15M1654.397 381l-.15-25.739M1827.58 368.088l-25.739.15M1814.818 381l-.15-25.739M1988 207.668l-25.739.15M1975.238 220.58l-.15-25.739M1988 368.088l-25.739.15M1975.238 381l-.15-25.739M1827.58 207.668l-25.739.15M1814.818 220.58l-.15-25.739M1667.159 47.247l-25.739.15M1654.397 60.159l-.15-25.739M1667.159 207.668l-25.739.15M1654.397 220.58l-.15-25.739M1827.58 47.247l-25.739.15M1814.818 60.159l-.15-25.739M1988 47.247l-25.739.15M1975.238 60.159l-.15-25.739M1667.159 207.668l-25.739.15M1654.397 220.58l-.15-25.739M1827.58 207.668l-25.739.15M1814.818 220.58l-.15-25.739M1827.58 207.668l-25.739.15M1814.818 220.58l-.15-25.739M1667.159 207.668l-25.739.15M1654.397 220.58l-.15-25.739M1987.739 207.668l-25.739.15M1974.977 220.58l-.15-25.739M1987.739 368.088l-25.739.15M1974.977 381l-.15-25.739M2148.159 368.088l-25.739.15M2135.397 381l-.15-25.739M2308.58 368.088l-25.739.15M2295.818 381l-.15-25.739M2469 207.668l-25.739.15M2456.238 220.58l-.15-25.739M2469 368.088l-25.739.15M2456.238 381l-.15-25.739M2308.58 207.668l-25.739.15M2295.818 220.58l-.15-25.739M2148.159 47.247l-25.739.15M2135.397 60.159l-.15-25.739M2148.159 207.668l-25.739.15M2135.397 220.58l-.15-25.739M2308.58 47.247l-25.739.15M2295.818 60.159l-.15-25.739M2469 47.247l-25.739.15M2456.238 60.159l-.15-25.739M2295.818 220.58l-.15-25.739M2295.818 220.58l-.15-25.739M2468.739 368.088l-25.739.15M2455.977 381l-.15-25.739M2629.159 368.088l-25.739.15M2616.397 381l-.15-25.739M2789.58 368.088l-25.739.15M2776.818 381l-.15-25.739M2950 207.668l-25.739.15M2937.238 220.58l-.15-25.739M2950 368.088l-25.739.15M2937.238 381l-.15-25.739M2789.58 207.668l-25.739.15M2776.818 220.58l-.15-25.739M2629.159 47.247l-25.739.15M2616.397 60.159l-.15-25.739M2629.159 207.668l-25.739.15M2616.397 220.58l-.15-25.739M2789.58 47.247l-25.739.15M2776.818 60.159l-.15-25.739M2950 47.247l-25.739.15M2937.238 60.159l-.15-25.739"/>
    </g>
</svg>
